<svg id="Layer_1" enable-background="new 0 0 512 512" height="512" viewBox="0 0 512 512" width="512" xmlns="http://www.w3.org/2000/svg"><g><path d="m345 0c-11.046 0-20 8.954-20 20v168.756c-18.806-15.463-42.84-24.756-69-24.756-60.103 0-109 49.346-109 110v128.685c0 60.276 48.897 109.315 109 109.315 11.046 0 20-8.954 20-20s-8.954-20-20-20c-38.047 0-69-31.095-69-69.315v-128.685c0-38.598 30.953-70 69-70s69 31.095 69 69.315v64.685c0 11.046 8.954 20 20 20s20-8.954 20-20v-318c0-11.046-8.954-20-20-20z"/><path d="m321.993 483c-4.743 0-9.503-1.677-13.318-5.086-8.237-7.359-8.948-20.002-1.589-28.239 8.815-9.867 14.934-22.365 17.227-35.194 1.944-10.874 12.333-18.113 23.208-16.168 10.873 1.943 18.112 12.334 16.168 23.207-3.58 20.024-13.088 39.488-26.773 54.806-3.952 4.421-9.426 6.674-14.923 6.674z"/></g></svg>